# xmcd
#
# Track frame offsets: 
#        150
#        14551
#        29150
#        43585
#        55865
#        67241
#        79094
#        92106
#        103549
#        118362
#        131422
#        144254
#        158692
#        171384
#        185821
#        200376
#        215045
#        228421
#        241668
#        255982
#
# Disc length: 3605 seconds
#
# Revision: 1
# Processed by: cddbd v1.5.2PL0 Copyright (c) Steve Scherf et al.
# Submitted via: ExactAudioCopy v0.99pb5
#
DISCID=230e1314
DTITLE=Nat King Cole - Unforgettable - CD1
DYEAR=1900
DGENRE=Blues
TTITLE0=Unforgettable
TTITLE1=Mona Lisa
TTITLE2=Too Young
TTITLE3=Pretend
TTITLE4=A Blossom Fell
TTITLE5=Nature Boy
TTITLE6=Smile
TTITLE7=Orange Coloured Sky
TTITLE8=Lush Life
TTITLE9=Somewhere Along The Way
TTITLE10=Darling, Je Vous Aime Beaucoup
TTITLE11=Faith Can Move Mountains
TTITLE12=Jet
TTITLE13=Because You're Mine
TTITLE14=Can't I
TTITLE15=Angel Eyes
TTITLE16=Make Her Mine
TTITLE17=Tenderly
TTITLE18=Mother Nature And Father Time
TTITLE19=The Christmas Song (Merry Christmas to You)
EXTD=
EXTT0=
EXTT1=
EXTT2=
EXTT3=
EXTT4=
EXTT5=
EXTT6=
EXTT7=
EXTT8=
EXTT9=
EXTT10=
EXTT11=
EXTT12=
EXTT13=
EXTT14=
EXTT15=
EXTT16=
EXTT17=
EXTT18=
EXTT19=
PLAYORDER=
